<mxfile host="42897371-4631-4469-9b37-beea371e5f91" modified="2020-08-28T16:53:38.123Z" agent="5.0 (Macintosh; Intel Mac OS X 10_14_6) AppleWebKit/537.36 (KHTML, like Gecko) Code/1.48.2 Chrome/78.0.3904.130 Electron/7.3.2 Safari/537.36" etag="NSsvHKwbjKZxL1qRYYdK" version="13.1.3">
    <diagram id="6hGFLwfOUW9BJ-s0fimq" name="Page-1">
        <mxGraphModel dx="837" dy="1704" grid="1" gridSize="10" guides="1" tooltips="1" connect="1" arrows="1" fold="1" page="1" pageScale="1" pageWidth="827" pageHeight="1169" math="0" shadow="0">
            <root>
                <mxCell id="0"/>
                <mxCell id="1" parent="0"/>
                <mxCell id="33" value="&lt;font style=&quot;font-size: 20px&quot;&gt;docker&lt;/font&gt;" style="rounded=0;whiteSpace=wrap;html=1;align=left;verticalAlign=top;fillColor=#1A3300;strokeColor=#2D7600;fontColor=#ffffff;" vertex="1" parent="1">
                    <mxGeometry x="40" y="-400" width="840" height="840" as="geometry"/>
                </mxCell>
                <mxCell id="2" value="&lt;font style=&quot;font-size: 20px&quot;&gt;swarm&lt;/font&gt;" style="rounded=0;whiteSpace=wrap;html=1;align=left;verticalAlign=top;fillColor=#67AB9F;" vertex="1" parent="1">
                    <mxGeometry x="80" y="-360" width="760" height="760" as="geometry"/>
                </mxCell>
                <mxCell id="42" value="&lt;font style=&quot;font-size: 20px&quot;&gt;network: ch03&lt;/font&gt;" style="rounded=1;whiteSpace=wrap;html=1;align=left;arcSize=1;verticalAlign=top;dashed=1;dashPattern=1 1;fillColor=#FFB366;" vertex="1" parent="1">
                    <mxGeometry x="120" y="-200" width="640" height="560" as="geometry"/>
                </mxCell>
                <mxCell id="51" value="" style="group" vertex="1" connectable="0" parent="1">
                    <mxGeometry x="160" y="-160" width="280" height="470" as="geometry"/>
                </mxCell>
                <mxCell id="24" value="container: manager(dind)" style="rounded=0;whiteSpace=wrap;html=1;align=left;verticalAlign=top;fillColor=#B5739D;" vertex="1" parent="51">
                    <mxGeometry width="190" height="300" as="geometry"/>
                </mxCell>
                <mxCell id="50" value="" style="group" vertex="1" connectable="0" parent="51">
                    <mxGeometry x="-20" y="160" width="150" height="90" as="geometry"/>
                </mxCell>
                <mxCell id="48" value="" style="group" vertex="1" connectable="0" parent="50">
                    <mxGeometry width="150" height="90" as="geometry"/>
                </mxCell>
                <mxCell id="45" value="stack" style="rounded=0;whiteSpace=wrap;html=1;align=left;verticalAlign=top;fillColor=#007FFF;" vertex="1" parent="48">
                    <mxGeometry x="40" y="40" width="150" height="90" as="geometry"/>
                </mxCell>
                <mxCell id="6" value="&lt;font style=&quot;font-size: 20px&quot;&gt;Host&lt;/font&gt;" style="rounded=0;whiteSpace=wrap;html=1;align=left;verticalAlign=top;fillColor=#660000;" vertex="1" parent="1">
                    <mxGeometry x="40" y="480" width="840" height="60" as="geometry"/>
                </mxCell>
                <mxCell id="7" value="container: registry" style="rounded=0;whiteSpace=wrap;html=1;align=left;verticalAlign=top;fillColor=#B5739D;" vertex="1" parent="1">
                    <mxGeometry x="160" y="-320" width="190" height="80" as="geometry"/>
                </mxCell>
                <mxCell id="27" value="" style="group" vertex="1" connectable="0" parent="1">
                    <mxGeometry x="400" y="-160" width="363.5" height="500" as="geometry"/>
                </mxCell>
                <mxCell id="25" value="container: worker01&lt;span style=&quot;text-align: center&quot;&gt;(dind)&lt;/span&gt;" style="rounded=0;whiteSpace=wrap;html=1;align=left;verticalAlign=top;fillColor=#B5739D;" vertex="1" parent="27">
                    <mxGeometry width="320" height="130" as="geometry"/>
                </mxCell>
                <mxCell id="22" value="" style="group;fillColor=#007FFF;" vertex="1" connectable="0" parent="27">
                    <mxGeometry x="10" y="30" width="300" height="90" as="geometry"/>
                </mxCell>
                <mxCell id="9" value="" style="group" vertex="1" connectable="0" parent="22">
                    <mxGeometry width="300" height="90" as="geometry"/>
                </mxCell>
                <mxCell id="3" value="stack" style="rounded=0;whiteSpace=wrap;html=1;align=left;verticalAlign=top;fillColor=#007FFF;" vertex="1" parent="9">
                    <mxGeometry width="300" height="90" as="geometry"/>
                </mxCell>
                <mxCell id="4" value="service: echo_nginx" style="rounded=0;whiteSpace=wrap;html=1;align=center;verticalAlign=middle;fillColor=#3333FF;" vertex="1" parent="9">
                    <mxGeometry x="10" y="30" width="120" height="40" as="geometry"/>
                </mxCell>
                <mxCell id="5" value="service: echo_api" style="rounded=0;whiteSpace=wrap;html=1;align=center;verticalAlign=middle;fillColor=#3333FF;" vertex="1" parent="9">
                    <mxGeometry x="170" y="30" width="120" height="40" as="geometry"/>
                </mxCell>
                <mxCell id="8" value="" style="endArrow=classic;startArrow=classic;html=1;exitX=1;exitY=0.5;exitDx=0;exitDy=0;" edge="1" parent="9" source="4">
                    <mxGeometry width="50" height="50" relative="1" as="geometry">
                        <mxPoint x="120" y="100" as="sourcePoint"/>
                        <mxPoint x="170" y="50" as="targetPoint"/>
                    </mxGeometry>
                </mxCell>
                <mxCell id="31" value="" style="group" vertex="1" connectable="0" parent="1">
                    <mxGeometry x="400" y="180" width="320" height="130" as="geometry"/>
                </mxCell>
                <mxCell id="28" value="container: worker03&lt;span style=&quot;text-align: center&quot;&gt;(dind)&lt;/span&gt;" style="rounded=0;whiteSpace=wrap;html=1;align=left;verticalAlign=top;fillColor=#B5739D;" vertex="1" parent="31">
                    <mxGeometry width="320" height="130" as="geometry"/>
                </mxCell>
                <mxCell id="12" value="" style="group" vertex="1" connectable="0" parent="31">
                    <mxGeometry x="10" y="30" width="300" height="90" as="geometry"/>
                </mxCell>
                <mxCell id="13" value="stack" style="rounded=0;whiteSpace=wrap;html=1;align=left;verticalAlign=top;fillColor=#007FFF;" vertex="1" parent="12">
                    <mxGeometry width="300" height="90" as="geometry"/>
                </mxCell>
                <mxCell id="14" value="service: echo_nginx" style="rounded=0;whiteSpace=wrap;html=1;align=center;verticalAlign=middle;fillColor=#3333FF;" vertex="1" parent="12">
                    <mxGeometry x="10" y="30" width="120" height="40" as="geometry"/>
                </mxCell>
                <mxCell id="15" value="service: echo_api" style="rounded=0;whiteSpace=wrap;html=1;align=center;verticalAlign=middle;fillColor=#3333FF;" vertex="1" parent="12">
                    <mxGeometry x="170" y="30" width="120" height="40" as="geometry"/>
                </mxCell>
                <mxCell id="16" value="" style="endArrow=classic;startArrow=classic;html=1;exitX=1;exitY=0.5;exitDx=0;exitDy=0;" edge="1" parent="12" source="14">
                    <mxGeometry width="50" height="50" relative="1" as="geometry">
                        <mxPoint x="120" y="100" as="sourcePoint"/>
                        <mxPoint x="170" y="50" as="targetPoint"/>
                    </mxGeometry>
                </mxCell>
                <mxCell id="32" value="" style="group" vertex="1" connectable="0" parent="1">
                    <mxGeometry x="400" y="10" width="320" height="130" as="geometry"/>
                </mxCell>
                <mxCell id="26" value="container: worker02&lt;span style=&quot;text-align: center&quot;&gt;(dind)&lt;/span&gt;" style="rounded=0;whiteSpace=wrap;html=1;align=left;verticalAlign=top;fillColor=#B5739D;" vertex="1" parent="32">
                    <mxGeometry width="320" height="130" as="geometry"/>
                </mxCell>
                <mxCell id="17" value="" style="group" vertex="1" connectable="0" parent="32">
                    <mxGeometry x="10" y="30" width="300" height="90" as="geometry"/>
                </mxCell>
                <mxCell id="23" value="" style="group" vertex="1" connectable="0" parent="17">
                    <mxGeometry width="300" height="90" as="geometry"/>
                </mxCell>
                <mxCell id="18" value="stack" style="rounded=0;whiteSpace=wrap;html=1;align=left;verticalAlign=top;fillColor=#007FFF;" vertex="1" parent="23">
                    <mxGeometry width="300" height="90" as="geometry"/>
                </mxCell>
                <mxCell id="19" value="service: echo_nginx" style="rounded=0;whiteSpace=wrap;html=1;align=center;verticalAlign=middle;fillColor=#3333FF;" vertex="1" parent="23">
                    <mxGeometry x="10" y="25" width="120" height="40" as="geometry"/>
                </mxCell>
                <mxCell id="20" value="service: echo_api" style="rounded=0;whiteSpace=wrap;html=1;align=center;verticalAlign=middle;fillColor=#3333FF;" vertex="1" parent="23">
                    <mxGeometry x="170" y="25" width="120" height="40" as="geometry"/>
                </mxCell>
                <mxCell id="21" value="" style="endArrow=classic;startArrow=classic;html=1;exitX=1;exitY=0.5;exitDx=0;exitDy=0;entryX=0;entryY=0.5;entryDx=0;entryDy=0;" edge="1" parent="23" source="19" target="20">
                    <mxGeometry width="50" height="50" relative="1" as="geometry">
                        <mxPoint x="120" y="100" as="sourcePoint"/>
                        <mxPoint x="170" y="50" as="targetPoint"/>
                    </mxGeometry>
                </mxCell>
                <mxCell id="47" value="" style="group" vertex="1" connectable="0" parent="1">
                    <mxGeometry x="120" y="380" width="150" height="90" as="geometry"/>
                </mxCell>
                <mxCell id="49" value="" style="group" vertex="1" connectable="0" parent="47">
                    <mxGeometry x="20" y="-540" width="150" height="90" as="geometry"/>
                </mxCell>
                <mxCell id="43" value="stack" style="rounded=0;whiteSpace=wrap;html=1;align=left;verticalAlign=top;fillColor=#007FFF;" vertex="1" parent="49">
                    <mxGeometry x="40" y="40" width="150" height="90" as="geometry"/>
                </mxCell>
                <mxCell id="44" value="service:&amp;nbsp;&lt;br&gt;visualizer" style="rounded=0;whiteSpace=wrap;html=1;align=center;verticalAlign=middle;fillColor=#3333FF;" vertex="1" parent="49">
                    <mxGeometry x="55" y="70" width="120" height="40" as="geometry"/>
                </mxCell>
                <mxCell id="56" value="" style="edgeStyle=segmentEdgeStyle;endArrow=none;html=1;exitX=0.5;exitY=1;exitDx=0;exitDy=0;startArrow=classic;startFill=1;endFill=0;" edge="1" parent="1" source="7" target="24">
                    <mxGeometry width="50" height="50" relative="1" as="geometry">
                        <mxPoint x="400" y="-280" as="sourcePoint"/>
                        <mxPoint x="450" y="-330" as="targetPoint"/>
                        <Array as="points">
                            <mxPoint x="255" y="-230"/>
                            <mxPoint x="255" y="-230"/>
                        </Array>
                    </mxGeometry>
                </mxCell>
                <mxCell id="57" value="" style="edgeStyle=segmentEdgeStyle;endArrow=none;html=1;entryX=1;entryY=0.5;entryDx=0;entryDy=0;startArrow=classic;startFill=1;endFill=0;" edge="1" parent="1" target="25">
                    <mxGeometry width="50" height="50" relative="1" as="geometry">
                        <mxPoint x="350" y="-280" as="sourcePoint"/>
                        <mxPoint x="480" y="-320" as="targetPoint"/>
                        <Array as="points">
                            <mxPoint x="800" y="-95"/>
                        </Array>
                    </mxGeometry>
                </mxCell>
                <mxCell id="58" value="" style="edgeStyle=segmentEdgeStyle;endArrow=none;html=1;startArrow=classic;startFill=1;endFill=0;entryX=1;entryY=0.5;entryDx=0;entryDy=0;" edge="1" parent="1" target="26">
                    <mxGeometry width="50" height="50" relative="1" as="geometry">
                        <mxPoint x="350" y="-280" as="sourcePoint"/>
                        <mxPoint x="730" y="-85" as="targetPoint"/>
                        <Array as="points">
                            <mxPoint x="800" y="-280"/>
                            <mxPoint x="800" y="75"/>
                        </Array>
                    </mxGeometry>
                </mxCell>
                <mxCell id="59" value="" style="edgeStyle=segmentEdgeStyle;endArrow=none;html=1;exitX=1;exitY=0.5;exitDx=0;exitDy=0;startArrow=classic;startFill=1;endFill=0;entryX=1;entryY=0.5;entryDx=0;entryDy=0;" edge="1" parent="1" source="7" target="28">
                    <mxGeometry width="50" height="50" relative="1" as="geometry">
                        <mxPoint x="320" y="-270" as="sourcePoint"/>
                        <mxPoint x="720" y="90" as="targetPoint"/>
                        <Array as="points">
                            <mxPoint x="800" y="-280"/>
                            <mxPoint x="800" y="245"/>
                        </Array>
                    </mxGeometry>
                </mxCell>
                <mxCell id="62" value="" style="edgeStyle=elbowEdgeStyle;elbow=horizontal;endArrow=classic;html=1;entryX=0;entryY=0.5;entryDx=0;entryDy=0;startArrow=oval;startFill=1;exitX=1;exitY=0.5;exitDx=0;exitDy=0;" edge="1" parent="1" source="45" target="4">
                    <mxGeometry width="50" height="50" relative="1" as="geometry">
                        <mxPoint x="330" y="60" as="sourcePoint"/>
                        <mxPoint x="380" y="10" as="targetPoint"/>
                        <Array as="points">
                            <mxPoint x="370" y="-10"/>
                        </Array>
                    </mxGeometry>
                </mxCell>
                <mxCell id="64" value="" style="edgeStyle=elbowEdgeStyle;elbow=horizontal;endArrow=classic;html=1;entryX=0;entryY=0.5;entryDx=0;entryDy=0;startArrow=oval;startFill=1;exitX=1;exitY=0.5;exitDx=0;exitDy=0;" edge="1" parent="1" source="45" target="14">
                    <mxGeometry width="50" height="50" relative="1" as="geometry">
                        <mxPoint x="330" y="60" as="sourcePoint"/>
                        <mxPoint x="430" y="100" as="targetPoint"/>
                        <Array as="points">
                            <mxPoint x="370" y="160"/>
                        </Array>
                    </mxGeometry>
                </mxCell>
                <mxCell id="65" value="" style="endArrow=classic;html=1;exitX=1;exitY=0.5;exitDx=0;exitDy=0;entryX=0;entryY=0.5;entryDx=0;entryDy=0;" edge="1" parent="1" source="45" target="19">
                    <mxGeometry width="50" height="50" relative="1" as="geometry">
                        <mxPoint x="440" y="110" as="sourcePoint"/>
                        <mxPoint x="490" y="60" as="targetPoint"/>
                    </mxGeometry>
                </mxCell>
                <mxCell id="46" value="service:&amp;nbsp;&lt;br&gt;haproxy" style="rounded=0;whiteSpace=wrap;html=1;align=center;verticalAlign=middle;fillColor=#3333FF;" vertex="1" parent="1">
                    <mxGeometry x="195" y="70" width="120" height="40" as="geometry"/>
                </mxCell>
                <mxCell id="69" value="echo_api" style="shape=cylinder;whiteSpace=wrap;html=1;boundedLbl=1;backgroundOutline=1;fontSize=12;align=center;fillColor=#666666;" vertex="1" parent="1">
                    <mxGeometry x="210" y="-290" width="90" height="40" as="geometry"/>
                </mxCell>
                <mxCell id="71" value=":9000" style="rounded=1;whiteSpace=wrap;html=1;fontSize=12;align=center;dashed=1;dashPattern=1 1;" vertex="1" parent="1">
                    <mxGeometry x="100" y="496" width="80" height="30" as="geometry"/>
                </mxCell>
                <mxCell id="66" value="" style="edgeStyle=elbowEdgeStyle;elbow=horizontal;endArrow=classic;html=1;entryX=0;entryY=0.5;entryDx=0;entryDy=0;startArrow=oval;startFill=1;exitX=0.5;exitY=0;exitDx=0;exitDy=0;" edge="1" parent="1" source="71" target="43">
                    <mxGeometry width="50" height="50" relative="1" as="geometry">
                        <mxPoint x="140" y="480" as="sourcePoint"/>
                        <mxPoint x="190" y="430" as="targetPoint"/>
                        <Array as="points">
                            <mxPoint x="140" y="200"/>
                        </Array>
                    </mxGeometry>
                </mxCell>
                <mxCell id="72" value=":8000" style="rounded=1;whiteSpace=wrap;html=1;fontSize=12;align=center;dashed=1;dashPattern=1 1;" vertex="1" parent="1">
                    <mxGeometry x="215" y="496" width="80" height="30" as="geometry"/>
                </mxCell>
                <mxCell id="60" value="" style="endArrow=oval;html=1;entryX=0.5;entryY=1;entryDx=0;entryDy=0;exitX=0.5;exitY=0;exitDx=0;exitDy=0;startArrow=oval;startFill=1;endFill=1;" edge="1" parent="1" source="72" target="45">
                    <mxGeometry width="50" height="50" relative="1" as="geometry">
                        <mxPoint x="257.9" y="482" as="sourcePoint"/>
                        <mxPoint x="290" y="430" as="targetPoint"/>
                    </mxGeometry>
                </mxCell>
            </root>
        </mxGraphModel>
    </diagram>
</mxfile>